<svg xmlns="http://www.w3.org/2000/svg" width="1200" height="630" viewBox="0 0 1200 630">
  <rect x="0" y="0" width="1200" height="630" fill="#071a52"/>
  <clipPath id="cp0">
    <path d="M0 0H1200V630H0Z"/>
  </clipPath>
  <g clip-path="url(#cp0)">
    <g transform="matrix(.951 -.309 .309 .951 787.892 170.694)">
      <rect x="0" y="0" width="520" height="96" fill="#00c2ff"/>
    </g>
    <g transform="matrix(.951 -.309 .309 .951 884.711 282.608)">
      <rect x="0" y="0" width="390" height="96" fill="#ffcb47"/>
    </g>
    <path d="M79.09 70.08q-1.93 0-3.07 1.45-1.13 1.44-1.13 3.92t1.13 3.93q1.14 1.43 3.07 1.43 1.94 0 3.07-1.43 1.12-1.44 1.12-3.93t-1.12-3.92q-1.13-1.45-3.07-1.45Zm0-1.44q2.77 0 4.41 1.86 1.66 1.84 1.66 4.95 0 3.1-1.66 4.96-1.64 1.84-4.41 1.84t-4.42-1.84-1.65-4.96q0-3.11 1.65-4.95 1.66-1.86 4.42-1.86Z" fill="#00c2ff" stroke="#00c2ff" stroke-width=".688"/>
    <path d="M100.49 80.13v-3.52h-2.91v-1.47h4.66v5.64q-1.03.72-2.27 1.1t-2.64.37q-3.08 0-4.81-1.8t-1.74-5q0-3.22 1.74-5.01t4.81-1.8q1.28 0 2.44.31t2.12.94v1.89q-.98-.84-2.09-1.26-1.09-.43-2.33-.43-2.41 0-3.61 1.35t-1.2 4.01 1.2 4 3.61 1.35q.95 0 1.69-.16.73-.17 1.33-.51Z" fill="#00c2ff" stroke="#00c2ff" stroke-width=".688"/>
    <path d="M109.08 68.88h8.3v1.5h-6.52v3.87h6.25v1.5h-6.25v4.75h6.67v1.5h-8.45Z" fill="#00c2ff" stroke="#00c2ff" stroke-width=".688"/>
    <path d="M123.43 68.88h1.91l3.25 4.87 3.28-4.88h1.9l-4.22 6.3 4.5 6.83h-1.9l-3.69-5.58-3.72 5.58h-1.92l4.69-7Z" fill="#00c2ff" stroke="#00c2ff" stroke-width=".688"/>
    <path d="M152.12 68.88h1.48l-4.56 14.79h-1.5Z" fill="#00c2ff" stroke="#00c2ff" stroke-width=".688"/>
    <path d="M171.68 82l-5.01-13.13h1.86l4.15 11.05 4.16-11.04h1.86l-5.02 13.12Z" fill="#00c2ff" stroke="#00c2ff" stroke-width=".688"/>
    <path d="M184.21 68.88h8.29v1.5h-6.51v3.87h6.25v1.5h-6.25v4.75h6.67v1.5h-8.45Z" fill="#00c2ff" stroke="#00c2ff" stroke-width=".688"/>
    <path d="M209.01 69.89v1.88q-.89-.85-1.91-1.25-1.01-.43-2.15-.43-2.25 0-3.46 1.38-1.18 1.37-1.18 3.98 0 2.6 1.18 3.97 1.21 1.38 3.46 1.38 1.14 0 2.15-.41 1.02-.42 1.91-1.25v1.84q-.94.64-1.99.96-1.03.31-2.18.31-2.99 0-4.71-1.81-1.7-1.83-1.7-4.99t1.7-4.98q1.72-1.83 4.71-1.83 1.17 0 2.2.31 1.05.32 1.97.94Z" fill="#00c2ff" stroke="#00c2ff" stroke-width=".688"/>
    <path d="M213.54 68.88h11.09v1.5h-4.66v11.62h-1.78v-11.63h-4.65Z" fill="#00c2ff" stroke="#00c2ff" stroke-width=".688"/>
    <path d="M235.27 70.08q-1.94 0-3.08 1.45-1.12 1.44-1.12 3.92t1.12 3.93q1.14 1.43 3.08 1.43t3.06-1.43q1.13-1.44 1.13-3.93t-1.13-3.92q-1.12-1.45-3.06-1.45Zm0-1.44q2.77 0 4.41 1.86 1.65 1.84 1.65 4.95 0 3.1-1.65 4.96-1.64 1.84-4.41 1.84t-4.42-1.84-1.66-4.96q0-3.11 1.66-4.95 1.66-1.86 4.42-1.86Z" fill="#00c2ff" stroke="#00c2ff" stroke-width=".688"/>
    <path d="M253.93 75.84q.58.21 1.11.85.55.62 1.09 1.72l1.8 3.59h-1.91l-1.67-3.36q-.65-1.33-1.26-1.75-.61-.44-1.68-.44h-1.92v5.55h-1.78v-13.13h4.02q2.25 0 3.34.96 1.11.94 1.11 2.83 0 1.23-.58 2.06-.56.81-1.67 1.12Zm-4.44-5.5v4.66h2.24q1.28 0 1.93-.59.66-.6.66-1.75 0-1.16-.66-1.74t-1.93-.58Z" fill="#00c2ff" stroke="#00c2ff" stroke-width=".688"/>
    <path d="M281.02 69.31v1.74q-1.02-.49-1.93-.72-.89-.25-1.72-.25-1.45 0-2.25.56-.78.56-.78 1.61 0 .86.52 1.31.53.44 1.98.72l1.08.22q1.99.38 2.92 1.33.96.95.96 2.54 0 1.91-1.28 2.9t-3.75.98q-.93 0-1.99-.22-1.05-.2-2.17-.61v-1.83q1.09.61 2.12.93 1.04.29 2.04.29 1.53 0 2.34-.59.83-.6.83-1.7 0-.97-.6-1.52-.57-.55-1.93-.81l-1.08-.22q-1.99-.39-2.88-1.24-.89-.84-.89-2.34 0-1.75 1.22-2.75 1.24-1 3.39-1 .92 0 1.88.17.95.16 1.97.5Z" fill="#00c2ff" stroke="#00c2ff" stroke-width=".688"/>
    <path d="M288.17 68.88h1.78v13.12h-1.78Z" fill="#00c2ff" stroke="#00c2ff" stroke-width=".688"/>
    <path d="M306.03 80.13v-3.52h-2.91v-1.47h4.66v5.64q-1.03.72-2.27 1.1t-2.64.37q-3.08 0-4.81-1.8t-1.74-5q0-3.22 1.74-5.01t4.81-1.8q1.28 0 2.44.31t2.12.94v1.89q-.98-.84-2.09-1.26-1.09-.43-2.33-.43-2.4 0-3.61 1.35t-1.2 4.01q0 2.66 1.2 4t3.61 1.35q.96 0 1.69-.16.73-.17 1.33-.51Z" fill="#00c2ff" stroke="#00c2ff" stroke-width=".688"/>
    <path d="M314.62 68.88h2.39l5.82 10.98v-10.99h1.73v13.13h-2.39l-5.83-10.98v10.98h-1.72Z" fill="#00c2ff" stroke="#00c2ff" stroke-width=".688"/>
    <path d="M336.08 70.63l-2.41 6.53h4.81Zm-1-1.75h2l5.01 13.12h-1.86l-1.18-3.36h-5.92l-1.19 3.36h-1.88Z" fill="#00c2ff" stroke="#00c2ff" stroke-width=".688"/>
    <path d="M347.6 68.88h1.78v11.62h6.39v1.5h-8.17Z" fill="#00c2ff" stroke="#00c2ff" stroke-width=".688"/>
    <path d="M121.23 182.13v8.85q-5.17-2.46-9.75-3.68t-8.84-1.22q-7.42 0-11.44 2.87t-4.01 8.19q0 4.44 2.67 6.72 2.67 2.26 10.12 3.66l5.49 1.12q10.15 1.92 14.98 6.8t4.83 13.04q0 9.75-6.55 14.79-6.53 5.03-19.15 5.03-4.75 0-10.13-1.08t-11.12-3.19v-9.34q5.53 3.11 10.83 4.68t10.42 1.57q7.78 0 12-3.05 4.22-3.06 4.22-8.72 0-4.95-3.03-7.73t-9.96-4.17l-5.51-1.08q-10.16-2.03-14.71-6.35-4.53-4.31-4.53-11.98 0-8.91 6.27-14.02 6.26-5.12 17.28-5.12 4.72 0 9.61.86 4.89.84 10.01 2.54Z" fill="#f2faff" stroke="#f2faff" stroke-width="2.875"/>
    <path d="M134.93 196.69h8.27v50.31h-8.27Zm0-19.6h8.27v10.47h-8.27Z" fill="#f2faff" stroke="#f2faff" stroke-width="2.875"/>
    <path d="M189.46 221.27q0-8.99-3.72-13.93-3.7-4.95-10.39-4.95-6.64 0-10.36 4.95-3.7 4.94-3.7 13.93 0 8.93 3.7 13.87 3.72 4.94 10.36 4.94 6.69 0 10.39-4.94 3.72-4.94 3.72-13.87Zm8.27 19.48q0 12.86-5.71 19.13t-17.48 6.26q-4.36 0-8.22-.66t-7.5-2v-8.03q3.64 1.97 7.19 2.91 3.54.95 7.23.95 8.13 0 12.17-4.25 4.05-4.25 4.05-12.83v-4.07q-2.56 4.43-6.56 6.64-4 2.2-9.56 2.2-9.27 0-14.93-7.05t-5.65-18.68q0-11.69 5.65-18.74 5.66-7.06 14.93-7.06 5.56 0 9.56 2.2t6.56 6.66v-7.64h8.27Z" fill="#f2faff" stroke="#f2faff" stroke-width="2.875"/>
    <path d="M252.44 216.63v30.37h-8.27v-30.09q0-7.14-2.8-10.69-2.78-3.56-8.34-3.56-6.7 0-10.56 4.28-3.86 4.26-3.86 11.62v28.44h-8.31v-50.31h8.31v7.81q2.95-4.53 6.97-6.78t9.28-2.25q8.67 0 13.12 5.37t4.46 15.79Z" fill="#f2faff" stroke="#f2faff" stroke-width="2.875"/>
    <path d="M287.64 221.7q-10.02 0-13.88 2.3t-3.86 7.81q0 4.41 2.89 7 2.91 2.58 7.89 2.58 6.88 0 11.02-4.87 4.16-4.88 4.16-12.97v-1.85Zm16.48-3.4v28.7h-8.26v-7.64q-2.83 4.58-7.05 6.76t-10.33 2.18q-7.73 0-12.3-4.33-4.54-4.35-4.54-11.61 0-8.5 5.67-12.81 5.69-4.32 16.97-4.32h11.58v-.79q0-5.72-3.75-8.83-3.75-3.13-10.54-3.13-4.31 0-8.4 1.04-4.08 1.03-7.86 3.09v-7.63q4.55-1.76 8.81-2.64t8.31-.87q10.91 0 16.3 5.67 5.39 5.66 5.39 17.16Z" fill="#f2faff" stroke="#f2faff" stroke-width="2.875"/>
    <path d="M317.01 177.09h8.27v69.91h-8.27Z" fill="#f2faff" stroke="#f2faff" stroke-width="2.875"/>
    <path d="M370.51 198.17v7.81q-3.51-1.79-7.29-2.68-3.77-.91-7.8-.91-6.16 0-9.23 1.89-3.08 1.89-3.08 5.66 0 2.87 2.2 4.51t8.84 3.13l2.83.62q8.81 1.89 12.52 5.33t3.7 9.6q0 6.99-5.55 11.09-5.54 4.08-15.25 4.08-4.04 0-8.42-.78t-9.23-2.36v-8.54q4.58 2.38 9.03 3.58t8.81 1.19q5.83 0 8.97-2 3.16-2 3.16-5.64 0-3.38-2.28-5.17t-9.94-3.46l-2.88-.67q-7.68-1.62-11.11-4.97-3.4-3.34-3.4-9.18 0-7.1 5.03-10.96 5.03-3.87 14.28-3.87 4.59 0 8.62.69 4.05.67 7.47 2.01Z" fill="#f2faff" stroke="#f2faff" stroke-width="2.875"/>
    <path d="M439.41 198.17v7.81q-3.52-1.79-7.3-2.68-3.76-.91-7.79-.91-6.16 0-9.24 1.89t-3.08 5.66q0 2.87 2.21 4.51 2.2 1.64 8.84 3.13l2.83.62q8.81 1.89 12.51 5.33t3.71 9.6q0 6.99-5.55 11.09-5.55 4.08-15.25 4.08-4.05 0-8.42-.78t-9.24-2.36v-8.54q4.58 2.38 9.03 3.58t8.82 1.19q5.83 0 8.97-2 3.15-2 3.15-5.64 0-3.38-2.28-5.17-2.26-1.8-9.94-3.46l-2.87-.67q-7.69-1.62-11.11-4.97-3.41-3.34-3.41-9.18 0-7.1 5.03-10.96 5.04-3.87 14.29-3.87 4.59 0 8.62.69 4.05.67 7.47 2.01Z" fill="#f2faff" stroke="#f2faff" stroke-width="2.875"/>
    <path d="M459.29 182.41v14.28h17.04v6.42h-17.04v27.31q0 6.16 1.69 7.91t6.85 1.75h8.5v6.92h-8.5q-9.57 0-13.21-3.56-3.64-3.58-3.64-13.02v-27.31h-6.06v-6.42h6.06v-14.28Z" fill="#f2faff" stroke="#f2faff" stroke-width="2.875"/>
    <path d="M505.91 221.7q-10.01 0-13.87 2.3t-3.86 7.81q0 4.41 2.89 7 2.91 2.58 7.89 2.58 6.88 0 11.02-4.87 4.15-4.88 4.15-12.97v-1.85Zm16.49-3.4v28.7h-8.27v-7.64q-2.82 4.58-7.04 6.76t-10.33 2.18q-7.74 0-12.3-4.33-4.55-4.35-4.55-11.61 0-8.5 5.68-12.81t16.97-4.32h11.57v-.79q0-5.72-3.75-8.83-3.75-3.13-10.53-3.13-4.31 0-8.4 1.04-4.08 1.03-7.86 3.09v-7.63q4.54-1.76 8.81-2.64t8.31-.87q10.91 0 16.3 5.67 5.39 5.66 5.39 17.16Z" fill="#f2faff" stroke="#f2faff" stroke-width="2.875"/>
    <path d="M556.23 251.67q-3.52 8.99-6.84 11.72-3.32 2.75-8.89 2.75h-6.6v-6.92h4.85q3.42 0 5.29-1.63 1.89-1.61 4.19-7.62l1.48-3.78-20.36-49.5h8.77l15.72 39.34 15.73-39.34h8.75Z" fill="#f2faff" stroke="#f2faff" stroke-width="2.875"/>
    <path d="M642.78 198.17v7.81q-3.52-1.79-7.3-2.68-3.76-.91-7.79-.91-6.16 0-9.24 1.89t-3.08 5.66q0 2.87 2.21 4.51 2.2 1.64 8.84 3.13l2.83.62q8.81 1.89 12.51 5.33t3.71 9.6q0 6.99-5.55 11.09-5.55 4.08-15.25 4.08-4.05 0-8.42-.78t-9.24-2.36v-8.54q4.58 2.38 9.04 3.58 4.45 1.19 8.81 1.19 5.83 0 8.97-2 3.15-2 3.15-5.64 0-3.38-2.28-5.17-2.26-1.8-9.94-3.46l-2.87-.67q-7.69-1.62-11.11-4.97-3.41-3.34-3.41-9.18 0-7.1 5.03-10.96 5.04-3.87 14.29-3.87 4.59 0 8.62.69 4.05.67 7.47 2.01Z" fill="#f2faff" stroke="#f2faff" stroke-width="2.875"/>
    <path d="M696.32 216.63v30.37h-8.26v-30.09q0-7.14-2.8-10.69-2.78-3.56-8.35-3.56-6.7 0-10.56 4.28-3.86 4.26-3.86 11.62v28.44h-8.31v-69.91h8.31v27.41q2.96-4.53 6.97-6.78 4.03-2.25 9.28-2.25 8.67 0 13.13 5.37t4.45 15.79Z" fill="#f2faff" stroke="#f2faff" stroke-width="2.875"/>
    <path d="M731.52 221.7q-10.01 0-13.87 2.3t-3.86 7.81q0 4.41 2.89 7 2.9 2.58 7.89 2.58 6.87 0 11.01-4.87 4.16-4.88 4.16-12.97v-1.85Zm16.49-3.4v28.7h-8.27v-7.64q-2.83 4.58-7.05 6.76t-10.33 2.18q-7.73 0-12.29-4.33-4.55-4.35-4.55-11.61 0-8.5 5.67-12.81 5.69-4.32 16.97-4.32h11.58v-.79q0-5.72-3.75-8.83-3.75-3.13-10.53-3.13-4.31 0-8.41 1.04-4.08 1.03-7.86 3.09v-7.63q4.55-1.76 8.82-2.64t8.31-.87q10.9 0 16.29 5.67 5.4 5.66 5.4 17.16Z" fill="#f2faff" stroke="#f2faff" stroke-width="2.875"/>
    <path d="M790.05 204.41q-1.39-.8-3.03-1.18t-3.62-.39q-7 0-10.75 4.57-3.75 4.54-3.75 13.09v26.5h-8.31v-50.31h8.31v7.81q2.59-4.58 6.76-6.8 4.19-2.23 10.18-2.23.84 0 1.87.12t2.3.33Z" fill="#f2faff" stroke="#f2faff" stroke-width="2.875"/>
    <path d="M802.58 239.45v26.69h-8.31v-69.45h8.31v7.64q2.6-4.5 6.57-6.67 3.98-2.19 9.51-2.19 9.16 0 14.89 7.28t5.74 19.14q0 11.86-5.74 19.14-5.73 7.27-14.89 7.27-5.53 0-9.51-2.18t-6.57-6.67Zm28.11-17.56q0-9.12-3.75-14.31t-10.29-5.19q-6.57 0-10.32 5.19t-3.75 14.31 3.75 14.31 10.32 5.19q6.54 0 10.29-5.19t3.75-14.31Z" fill="#f2faff" stroke="#f2faff" stroke-width="2.875"/>
    <g fill="#bcecff">
      <use href="#g0" x="72" y="311"/>
      <use href="#g1" x="93.25" y="311"/>
      <use href="#g2" x="110.36" y="311"/>
      <use href="#g3" x="135.56" y="311"/>
      <use href="#g4" x="155.86" y="311"/>
      <use href="#g4" x="172.92" y="311"/>
      <use href="#g5" x="189.98" y="311"/>
      <use href="#g6" x="214.54" y="311"/>
      <use href="#g7" x="222.04" y="311"/>
      <use href="#g8" x="238.59" y="311"/>
      <use href="#g9" x="254.57" y="311"/>
      <use href="#g10" x="271.09" y="311"/>
      <use href="#g11" x="288.2" y="311"/>
      <use href="#g12" x="298.78" y="311"/>
      <use href="#g2" x="315.95" y="311"/>
      <use href="#g13" x="332.56" y="311"/>
      <use href="#g14" x="358.86" y="311"/>
      <use href="#g11" x="366.36" y="311"/>
      <use href="#g11" x="376.95" y="311"/>
      <use href="#g2" x="387.54" y="311"/>
      <use href="#g15" x="404.15" y="311"/>
      <use href="#g7" x="429.87" y="311"/>
      <use href="#g16" x="446.41" y="311"/>
      <use href="#g7" x="469.06" y="311"/>
      <use href="#g17" x="494.19" y="311"/>
      <use href="#g2" x="504.7" y="311"/>
      <use href="#g7" x="521.31" y="311"/>
      <use href="#g6" x="537.86" y="311"/>
      <use href="#g18" x="553.94" y="311"/>
      <use href="#g19" x="571.12" y="311"/>
      <use href="#g20" x="588.3" y="311"/>
      <use href="#g20" x="605.47" y="311"/>
      <use href="#g21" x="631.23" y="311"/>
      <use href="#g22" x="662.44" y="311"/>
      <use href="#g23" x="679.62" y="311"/>
      <use href="#g20" x="696.8" y="311"/>
    </g>
    <g fill="#bcecff">
      <use href="#g24" x="72" y="346.1"/>
      <use href="#g2" x="87.98" y="346.1"/>
      <use href="#g25" x="104.59" y="346.1"/>
      <use href="#g11" x="119.43" y="346.1"/>
      <use href="#g9" x="130.02" y="346.1"/>
      <use href="#g17" x="146.54" y="346.1"/>
      <use href="#g15" x="166.22" y="346.1"/>
      <use href="#g9" x="183.36" y="346.1"/>
      <use href="#g25" x="199.88" y="346.1"/>
      <use href="#g10" x="214.73" y="346.1"/>
      <use href="#g13" x="231.84" y="346.1"/>
      <use href="#g2" x="258.14" y="346.1"/>
      <use href="#g1" x="274.75" y="346.1"/>
      <use href="#g11" x="291.86" y="346.1"/>
      <use href="#g26" x="302.45" y="346.1"/>
    </g>
    <path d="M73.47 548.06h1.48v4.49h5.38v-4.49h1.48v10.94h-1.48v-5.2h-5.38v5.2h-1.48Z" fill="#f2faff" stroke="#f2faff" stroke-width=".59"/>
    <path d="M86.25 548.06h6.92v1.25h-5.44v3.24h5.21v1.25h-5.21v3.95h5.56v1.25h-7.04Z" fill="#f2faff" stroke="#f2faff" stroke-width=".59"/>
    <path d="M97.23 548.06h6.92v1.25h-5.44v3.24h5.2v1.25h-5.2v3.95h5.56v1.25h-7.04Z" fill="#f2faff" stroke="#f2faff" stroke-width=".59"/>
    <path d="M107.67 548.06h1.6l2.71 4.07 2.74-4.07h1.59l-3.51 5.25 3.75 5.69h-1.6l-3.07-4.66-3.1 4.66h-1.59l3.89-5.84Z" fill="#f2faff" stroke="#f2faff" stroke-width=".59"/>
    <path d="M136.62 553.97v.66l-2.89 2.87-.87-.88 1.7-1.7h-8.92v-1.25h8.92l-1.7-1.7.87-.88Z" fill="#f2faff" stroke="#f2faff" stroke-width=".59"/>
    <path d="M145.07 548.06h9.25v1.25h-3.88v9.69h-1.48v-9.69h-3.89Z" fill="#f2faff" stroke="#f2faff" stroke-width=".59"/>
    <path d="M159.74 549.52l-2 5.45h4.01Zm-.83-1.46h1.67l4.17 10.94h-1.54l-.99-2.81h-4.94l-1 2.81h-1.54Z" fill="#f2faff" stroke="#f2faff" stroke-width=".59"/>
    <path d="M167.84 548.06h1.49v4.63l4.9-4.63h1.91l-5.42 5.1 5.81 5.84h-1.95l-5.25-5.27v5.27h-1.49Z" fill="#f2faff" stroke="#f2faff" stroke-width=".59"/>
    <path d="M178.6 548.06h1.5v6.64q0 1.77.63 2.55.64.77 2.08.77 1.42 0 2.04-.77.65-.78.65-2.55v-6.64h1.48v6.83q0 2.14-1.06 3.23-1.05 1.1-3.11 1.1-2.08 0-3.14-1.09t-1.07-3.24Z" fill="#f2faff" stroke="#f2faff" stroke-width=".59"/>
    <path d="M191.26 548.06h2.2l2.8 7.44 2.79-7.44h2.22v10.94h-1.45v-9.61l-2.81 7.5h-1.49l-2.83-7.5v9.61h-1.43Z" fill="#f2faff" stroke="#f2faff" stroke-width=".59"/>
    <path d="M205.7 548.06h1.48v10.94h-1.48Z" fill="#f2faff" stroke="#f2faff" stroke-width=".59"/>
    <path d="M228.26 553.97v.66l-2.89 2.87-.87-.88 1.7-1.7h-8.92v-1.25h8.92l-1.7-1.7.87-.88Z" fill="#f2faff" stroke="#f2faff" stroke-width=".59"/>
    <path d="M244.79 548.42v1.44q-.85-.39-1.6-.59t-1.43-.21q-1.22 0-1.88.47t-.65 1.34q0 .72.43 1.1.44.36 1.66.59l.89.19q1.66.31 2.44 1.11.79.8.79 2.12 0 1.6-1.06 2.43-1.06.81-3.12.81-.78 0-1.66-.19-.87-.17-1.81-.51v-1.52q.9.5 1.76.77.86.25 1.71.25 1.26 0 1.95-.5t.69-1.43q0-.81-.5-1.26-.49-.46-1.61-.67l-.91-.19q-1.65-.33-2.4-1.03-.74-.71-.74-1.96 0-1.45 1.02-2.28 1.03-.84 2.82-.84.77 0 1.57.14t1.64.42Z" fill="#f2faff" stroke="#f2faff" stroke-width=".59"/>
    <path d="M252.08 559l-4.18-10.94h1.53l3.47 9.21 3.47-9.21h1.55l-4.17 10.94Z" fill="#f2faff" stroke="#f2faff" stroke-width=".59"/>
    <path d="M268.46 557.44v-2.94h-2.4v-1.22h3.87v4.7q-.86.61-1.89.93-1.03.31-2.2.31-2.57 0-4.02-1.5-1.44-1.5-1.44-4.17 0-2.69 1.44-4.19 1.45-1.5 4.02-1.5 1.07 0 2.03.27t1.78.78v1.57q-.83-.7-1.75-1.04-.92-.36-1.94-.36-2 0-3.01 1.12t-1 3.35q0 2.2 1 3.33 1.01 1.12 3.01 1.12.78 0 1.39-.14.63-.14 1.11-.42Z" fill="#f2faff" stroke="#f2faff" stroke-width=".59"/>
    <path d="M1025.86 557.75h2.42v-8.34l-2.64.53v-1.35l2.63-.53h1.48v9.69h2.41v1.25h-6.3Z" fill="#f2faff" stroke="#f2faff" stroke-width=".59"/>
    <path d="M1037.92 557.75h5.17v1.25h-6.95v-1.25q.84-.86 2.29-2.33t1.83-1.9q.72-.8 1-1.35.28-.56.28-1.09 0-.88-.61-1.42-.61-.55-1.59-.55-.7 0-1.48.25-.77.23-1.64.73v-1.5q.89-.36 1.67-.54.78-.19 1.42-.19 1.7 0 2.7.86 1.02.84 1.02 2.26 0 .68-.25 1.29t-.92 1.42q-.19.22-1.18 1.23-.96 1.02-2.76 2.83Z" fill="#f2faff" stroke="#f2faff" stroke-width=".59"/>
    <path d="M1050.85 549.03q-1.14 0-1.72 1.13t-.57 3.39q0 2.25.57 3.37.58 1.13 1.72 1.13 1.16 0 1.72-1.13.58-1.12.58-3.37 0-2.27-.58-3.39-.56-1.13-1.72-1.13Zm0-1.17q1.85 0 2.82 1.47.96 1.45.96 4.22 0 2.75-.96 4.22-.97 1.45-2.82 1.45-1.83 0-2.81-1.45-.97-1.47-.97-4.22 0-2.77.97-4.22.98-1.47 2.81-1.47Z" fill="#f2faff" stroke="#f2faff" stroke-width=".59"/>
    <path d="M1061.9 549.03q-1.14 0-1.72 1.13t-.58 3.39q0 2.25.58 3.37t1.72 1.13q1.15 0 1.71-1.13.58-1.12.58-3.37 0-2.27-.58-3.39-.56-1.13-1.71-1.13Zm0-1.17q1.84 0 2.81 1.47.97 1.45.97 4.22 0 2.75-.97 4.22-.97 1.45-2.81 1.45t-2.82-1.45q-.97-1.47-.97-4.22 0-2.77.97-4.22.99-1.47 2.82-1.47Z" fill="#f2faff" stroke="#f2faff" stroke-width=".59"/>
    <path d="M1084.96 550.94l-3.35 3.37 3.35 3.35-.88.87-3.36-3.36-3.36 3.36-.86-.87 3.33-3.35-3.33-3.37.86-.88 3.36 3.36 3.36-3.36Z" fill="#f2faff" stroke="#f2faff" stroke-width=".59"/>
    <path d="M1099.73 552.94q-1 0-1.58.68-.57.69-.57 1.86 0 1.19.57 1.88.58.69 1.58.69t1.58-.69.58-1.88q0-1.17-.58-1.85-.58-.69-1.58-.69Zm2.94-4.63v1.35q-.56-.27-1.13-.41-.56-.14-1.12-.14-1.47 0-2.25 1-.77.98-.88 2.98.44-.64 1.08-.98.66-.34 1.46-.34 1.64 0 2.59 1t.95 2.71q0 1.69-1 2.72-.98 1.02-2.64 1.02-1.9 0-2.9-1.45-1-1.47-1-4.22 0-2.6 1.23-4.14 1.23-1.55 3.3-1.55.56 0 1.12.12t1.19.33Z" fill="#f2faff" stroke="#f2faff" stroke-width=".59"/>
    <path d="M1111.92 553.11q1.06.22 1.65.94t.6 1.78q0 1.61-1.13 2.5-1.11.89-3.16.89-.68 0-1.42-.14-.72-.14-1.5-.41v-1.44q.63.36 1.35.55.73.19 1.53.19 1.39 0 2.12-.55t.74-1.59q0-.97-.69-1.52-.67-.54-1.88-.54h-1.28v-1.22h1.33q1.09 0 1.67-.44t.58-1.25q0-.84-.59-1.3t-1.71-.45q-.61 0-1.31.14-.69.13-1.53.41v-1.33q.84-.24 1.58-.35.73-.12 1.39-.12 1.69 0 2.67.77t.99 2.07q0 .91-.54 1.53-.51.63-1.46.88Z" fill="#f2faff" stroke="#f2faff" stroke-width=".59"/>
    <path d="M1121.63 549.03q-1.14 0-1.72 1.13t-.58 3.39q0 2.25.58 3.37t1.72 1.13q1.16 0 1.72-1.13.58-1.12.58-3.37 0-2.27-.58-3.39-.56-1.13-1.72-1.13Zm0-1.17q1.84 0 2.81 1.47.97 1.45.97 4.22 0 2.75-.97 4.22-.97 1.45-2.81 1.45-1.83 0-2.81-1.45-.97-1.47-.97-4.22 0-2.77.97-4.22.98-1.47 2.81-1.47Z" fill="#f2faff" stroke="#f2faff" stroke-width=".59"/>
  </g>
  <defs>
    <path id="g0" d="M10.64-17.88q-2.91 0-4.61 2.18-1.7 2.15-1.7 5.87t1.7 5.89q1.7 2.16 4.61 2.16t4.59-2.16q1.69-2.17 1.69-5.89t-1.69-5.87q-1.68-2.18-4.59-2.18Zm0-2.17q4.14 0 6.61 2.78 2.48 2.79 2.48 7.44t-2.48 7.44q-2.47 2.77-6.61 2.77-4.16 0-6.64-2.77t-2.48-7.44q0-4.65 2.48-7.44 2.48-2.78 6.64-2.78Z"/>
    <path id="g1" d="M14.81-8.91v8.91h-2.42v-8.83q0-2.09-.81-3.14t-2.46-1.05q-1.96 0-3.1 1.27-1.13 1.25-1.13 3.41v8.34h-2.44v-14.77h2.44v2.3q.88-1.33 2.05-1.98 1.18-.68 2.72-.68 2.54.01 3.84 1.58 1.31 1.58 1.31 4.64Z"/>
    <path id="g2" d="M15.17-7.98v1.18h-11.15q.15 2.5 1.5 3.82 1.36 1.31 3.78 1.31 1.39 0 2.7-.35 1.31-.34 2.61-1.03v2.3q-1.31.55-2.69.83-1.36.3-2.76.3-3.55 0-5.61-2.05-2.07-2.06-2.07-5.56 0-3.63 1.96-5.75 1.97-2.15 5.29-2.15 2.97.01 4.71 1.93t1.73 5.22Zm-2.42-.72q-.03-1.99-1.13-3.18-1.07-1.18-2.87-1.18-2.03 0-3.25 1.15t-1.41 3.22Z"/>
    <path id="g3" d="M2.66-19.69h2.65v8.08h9.67v-8.08h2.68v19.69h-2.68v-9.38l-9.67.01v9.37h-2.65Z"/>
    <path id="g4" d="M2.66-19.69h12.43v2.25h-9.78v5.83h9.38v2.23l-9.38.01v7.14h10.02v2.23h-12.67Z"/>
    <path id="g5" d="M14.81-14.77l-5.33 7.19 5.61 7.58h-2.86l-4.29-5.8-4.3 5.8h-2.86l5.74-7.72-5.25-7.05h2.86l3.92 5.27 3.9-5.27Z"/>
    <path id="g6" d="M2.55-20.52h2.42v20.52h-2.42Z"/>
    <path id="g7" d="M9.25-7.42q-2.94 0-4.08.67-1.12.67-1.12 2.3 0 1.28.84 2.04.86.77 2.33.77 2.01 0 3.23-1.44t1.22-3.8v-.54Zm4.84-1v8.42h-2.42v-2.23q-.83 1.34-2.08 1.98-1.23.63-3.03.63-2.26 0-3.61-1.27-1.33-1.27-1.33-3.41 0-2.5 1.66-3.76 1.67-1.27 4.99-1.27h3.4v-.23q0-1.67-1.11-2.58-1.09-.92-3.09-.92-1.27 0-2.47.31-1.19.3-2.3.89v-2.23q1.33-.52 2.58-.77 1.27-.27 2.44-.27 3.2.01 4.78 1.68 1.59 1.65 1.59 5.03Z"/>
    <path id="g8" d="M8.69 1.38q-1.03 2.64-2.02 3.43-.97.8-2.59.8h-1.94v-2.02h1.42q1 0 1.55-.48.56-.47 1.23-2.23l.44-1.11-5.98-14.54h2.58l4.6 11.55 4.63-11.55h2.56Z"/>
    <path id="g9" d="M8.27-13.06q-1.96 0-3.1 1.53-1.12 1.51-1.12 4.15 0 2.66 1.12 4.19 1.13 1.52 3.1 1.52 1.93 0 3.06-1.53t1.14-4.18q0-2.62-1.14-4.15-1.13-1.53-3.06-1.53Zm0-2.06q3.17-.01 4.96 2.06 1.82 2.04 1.82 5.69 0 3.62-1.82 5.68-1.79 2.07-4.96 2.07t-4.99-2.07q-1.8-2.06-1.8-5.69t1.8-5.68q1.81-2.06 4.99-2.06Z"/>
    <path id="g10" d="M2.3-5.83v-8.94h2.42v8.85q0 2.09.81 3.14.83 1.05 2.45 1.05 1.97 0 3.11-1.25t1.14-3.41v-8.38h2.43v14.77h-2.43v-2.27q-.89 1.35-2.06 2-1.15.65-2.7.65-2.53 0-3.86-1.58-1.31-1.58-1.31-4.63Zm6.09-9.3Z"/>
    <path id="g11" d="M4.94-18.95v4.18h5v1.9l-5-.01v8.02q0 1.8.5 2.31t2.01.52h2.49v2.03h-2.49q-2.81 0-3.89-1.05-1.06-1.04-1.06-3.81v-8.01l-1.78-.01v-1.89h1.78v-4.18Z"/>
    <path id="g12" d="M3.17-3.34h2.78v2.26l-2.17 4.22h-1.7l1.09-4.22Z"/>
    <path id="g13" d="M14.05-11.94q.9-1.62 2.17-2.4t2.98-.78q2.3-.01 3.55 1.62 1.25 1.61 1.25 4.59v8.91h-2.44v-8.83q0-2.12-.75-3.15t-2.29-1.04q-1.88 0-2.97 1.27-1.1 1.25-1.1 3.41v8.34h-2.43v-8.83q0-2.14-.77-3.15-.75-1.04-2.31-1.04-1.86 0-2.96 1.27-1.09 1.25-1.09 3.41v8.34h-2.44v-14.77h2.44v2.3q.83-1.36 1.99-2 1.17-.65 2.76-.65 1.61-.01 2.73.82 1.13.82 1.68 2.36Z"/>
    <path id="g14" d="M2.55-14.77h2.42v14.77h-2.42Zm0-5.75h2.42v3.08h-2.42Z"/>
    <path id="g15" d="M12.27-12.53v-7.99h2.42v20.52h-2.42v-2.22q-.77 1.33-1.94 1.97-1.17.63-2.8.63-2.67 0-4.36-2.13-1.69-2.14-1.69-5.63 0-3.46 1.69-5.6t4.36-2.15q1.63.01 2.8.65t1.94 1.95Zm-8.27 5.16q0 2.68 1.09 4.21 1.11 1.52 3.04 1.52 1.92 0 3.03-1.52t1.11-4.22q0-2.67-1.11-4.18-1.11-1.53-3.04-1.53-1.92 0-3.03 1.53-1.09 1.51-1.09 4.19Z"/>
    <path id="g16" d="M11.95-14.33v2.3q-1.03-.53-2.14-.8-1.09-.26-2.28-.26-1.81 0-2.72.56-.89.55-.89 1.65 0 .85.64 1.33t2.6.91l.82.19q2.6.56 3.68 1.57 1.09 1.01 1.09 2.8 0 2.06-1.63 3.27-1.62 1.18-4.48 1.18-1.19 0-2.47-.23-1.28-.22-2.7-.69v-2.5q1.34.71 2.64 1.07 1.31.34 2.59.34 1.71 0 2.63-.59t.92-1.66q0-.98-.67-1.52-.66-.53-2.91-1.01l-.84-.2q-2.25-.47-3.27-1.46-1-.98-1-2.69 0-2.09 1.47-3.21 1.49-1.15 4.2-1.15 1.35.01 2.54.21t2.18.59Z"/>
    <path id="g17" d="M11.09-12.5q-.4-.23-.89-.34-.47-.11-1.04-.11-2.07 0-3.18 1.34-1.09 1.33-1.09 3.83v7.78h-2.44v-14.77h2.44v2.3q.77-1.34 1.99-2t2.98-.65q.25-.01.55.03.31.03.68.11Z"/>
    <path id="g18" d="M3.34-2.23h4.36v-15.02l-4.73.94v-2.42l4.7-.96h2.67v17.46h4.35v2.23h-11.35Z"/>
    <path id="g19" d="M5.19-2.23h9.28v2.23h-12.49v-2.23q1.52-1.58 4.13-4.22 2.62-2.64 3.3-3.41 1.26-1.44 1.76-2.44.52-1 .52-1.95 0-1.58-1.1-2.56t-2.87-.99q-1.25 0-2.64.44t-2.97 1.31v-2.68q1.61-.65 3-.97 1.41-.35 2.56-.35 3.06 0 4.88 1.53t1.82 4.1q.01 1.22-.46 2.31-.46 1.08-1.64 2.55-.33.39-2.11 2.22-1.77 1.81-4.97 5.11Z"/>
    <path id="g20" d="M8.58-17.94q-2.05 0-3.1 2.03-1.03 2.03-1.03 6.08t1.03 6.08q1.05 2.02 3.1 2.02 2.08 0 3.11-2.02 1.03-2.03 1.03-6.08t-1.03-6.08-3.11-2.03Zm0-2.11q3.31 0 5.06 2.63 1.75 2.61 1.75 7.59t-1.75 7.6q-1.75 2.61-5.06 2.61-3.3 0-5.05-2.61-1.75-2.63-1.75-7.6 0-4.98 1.75-7.59 1.75-2.63 5.05-2.63Z"/>
    <path id="g21" d="M18.94-14.5l-6.03 6.05 6.03 6.03-1.58 1.59-6.05-6.05-6.04 6.05-1.57-1.59 6.02-6.03-6.02-6.05 1.57-1.59 6.04 6.04 6.05-6.04Z"/>
    <path id="g22" d="M8.91-10.91q-1.78 0-2.85 1.24-1.04 1.22-1.04 3.36 0 2.12 1.04 3.36 1.07 1.22 2.85 1.22 1.79 0 2.84-1.22 1.05-1.24 1.05-3.36 0-2.14-1.05-3.36-1.05-1.24-2.84-1.24Zm5.29-8.34v2.42q-1-.47-2.03-.72-1.01-.25-2.01-.25-2.64 0-4.04 1.78-1.39 1.79-1.59 5.38.78-1.14 1.95-1.75 1.18-.63 2.6-.63 2.95 0 4.67 1.82 1.73 1.79 1.73 4.89 0 3.03-1.79 4.86t-4.78 1.83q-3.41 0-5.22-2.61-1.8-2.63-1.8-7.6 0-4.65 2.2-7.44 2.22-2.78 5.96-2.78 1 0 2.01.21 1.03.2 2.14.59Z"/>
    <path id="g23" d="M10.95-10.61q1.93.41 2.99 1.7 1.08 1.28 1.08 3.19 0 2.91-2 4.5t-5.71 1.6q-1.23 0-2.54-.26-1.32-.23-2.71-.71v-2.58q1.11.65 2.42.98t2.75.33q2.52 0 3.82-.98 1.31-1 1.31-2.88 0-1.75-1.22-2.72-1.22-.98-3.39-.98h-2.3v-2.19h2.41q1.97 0 3-.78 1.05-.8 1.05-2.27 0-1.51-1.08-2.32t-3.08-.82q-1.09 0-2.34.24t-2.75.73v-2.37q1.51-.42 2.82-.63 1.33-.22 2.5-.22 3.04 0 4.8 1.39 1.78 1.38 1.78 3.72 0 1.64-.94 2.77t-2.67 1.56Z"/>
    <path id="g24" d="M.8-14.77h2.58l4.6 12.4 4.63-12.4h2.56l-5.53 14.77h-3.3Z"/>
    <path id="g25" d="M13.17-14.2v2.26q-1.03-.56-2.06-.84t-2.09-.28q-2.36 0-3.68 1.5-1.29 1.48-1.29 4.19 0 2.7 1.29 4.2 1.32 1.5 3.68 1.5 1.06 0 2.09-.28t2.06-.86v2.25q-1.01.47-2.11.7-1.08.24-2.31.24-3.33 0-5.3-2.1t-1.97-5.66q0-3.6 1.99-5.67t5.44-2.07q1.12-.01 2.18.23 1.08.23 2.08.69Z"/>
    <path id="g26" d="M2.89-3.34h2.78v3.34h-2.78Z"/>
  </defs>
</svg>