<svg xmlns="http://www.w3.org/2000/svg" width="600" height="600" viewBox="0 0 600 600">
  <rect x="0" y="0" width="600" height="600" fill="#3c1642"/>
  <path d="M56.3 65l-4.17-10.94h1.53l3.47 9.21 3.46-9.21h1.55l-4.17 10.94Z" fill="#ffd166" stroke="#ffd166" stroke-width=".59"/>
  <path d="M66.43 54.06h6.92v1.25h-5.44v3.24h5.21v1.25h-5.21v3.95h5.57v1.25h-7.05Z" fill="#ffd166" stroke="#ffd166" stroke-width=".59"/>
  <path d="M86.8 54.91v1.56q-.75-.7-1.6-1.05t-1.8-.34q-1.87 0-2.87 1.15-.98 1.15-.98 3.32 0 2.15.98 3.31 1 1.14 2.87 1.14.96 0 1.8-.34t1.6-1.05v1.55q-.77.53-1.65.79-.85.27-1.82.27-2.49 0-3.93-1.52-1.42-1.53-1.42-4.15 0-2.64 1.42-4.16 1.44-1.53 3.93-1.53.97 0 1.84.26.88.27 1.63.79Z" fill="#ffd166" stroke="#ffd166" stroke-width=".59"/>
  <path d="M90.27 54.06h9.25v1.25h-3.88v9.69h-1.48v-9.69h-3.89Z" fill="#ffd166" stroke="#ffd166" stroke-width=".59"/>
  <path d="M108.08 55.06q-1.61 0-2.56 1.21-.94 1.2-.94 3.28 0 2.06.94 3.26.95 1.21 2.56 1.21t2.55-1.21q.95-1.2.95-3.26 0-2.08-.95-3.28-.94-1.21-2.55-1.21Zm0-1.2q2.3 0 3.67 1.55 1.39 1.54 1.39 4.14 0 2.58-1.39 4.12-1.37 1.55-3.67 1.55t-3.69-1.53q-1.37-1.55-1.37-4.14t1.37-4.14q1.39-1.55 3.69-1.55Z" fill="#ffd166" stroke="#ffd166" stroke-width=".59"/>
  <path d="M123.34 59.88q.48.15.92.68.45.53.91 1.46l1.5 2.98h-1.58l-1.41-2.81q-.55-1.1-1.06-1.46t-1.38-.35l-1.61-.01v4.63h-1.48v-10.94h3.34q1.88 0 2.8.78t.92 2.38q0 1.03-.48 1.72-.47.67-1.39.94Zm-3.71-4.6v3.88h1.86q1.07 0 1.61-.49.55-.5.55-1.45 0-.97-.55-1.45t-1.61-.49Z" fill="#ffd166" stroke="#ffd166" stroke-width=".59"/>
  <path d="M145.3 54.42v1.44q-.84-.39-1.59-.59t-1.44-.21q-1.22 0-1.87.47t-.66 1.35q0 .71.44 1.09.44.36 1.65.59l.9.19q1.65.31 2.43 1.11.8.8.8 2.12 0 1.6-1.06 2.43-1.07.81-3.13.81-.78 0-1.65-.19-.88-.17-1.82-.51v-1.52q.91.5 1.77.77.86.25 1.7.25 1.27 0 1.96-.5t.68-1.43q0-.81-.5-1.26-.48-.46-1.61-.67l-.9-.19q-1.66-.33-2.41-1.03-.73-.71-.73-1.96 0-1.45 1.01-2.28 1.03-.84 2.83-.84.77 0 1.56.14t1.64.42Z" fill="#ffd166" stroke="#ffd166" stroke-width=".59"/>
  <path d="M152.45 55.28v4.11h1.86q1.03 0 1.59-.53.56-.55.56-1.53t-.56-1.52q-.56-.53-1.59-.53Zm-1.49-1.22h3.35q1.84 0 2.78.85.93.82.93 2.42 0 1.62-.93 2.45-.94.83-2.78.83h-1.86v4.39h-1.49Z" fill="#ffd166" stroke="#ffd166" stroke-width=".59"/>
  <path d="M162.71 54.06h6.92v1.25h-5.44v3.24h5.21v1.25h-5.21v3.95h5.56v1.25h-7.04Z" fill="#ffd166" stroke="#ffd166" stroke-width=".59"/>
  <path d="M183.07 54.91v1.56q-.75-.7-1.59-1.05t-1.8-.34q-1.87 0-2.87 1.15-.99 1.15-.99 3.32 0 2.15.99 3.31 1 1.14 2.87 1.14.96 0 1.8-.34t1.59-1.05v1.55q-.76.53-1.64.79-.86.27-1.83.27-2.48 0-3.92-1.52-1.42-1.53-1.42-4.15 0-2.64 1.42-4.16 1.44-1.53 3.92-1.53.97 0 1.85.26.87.27 1.62.79Z" fill="#ffd166" stroke="#ffd166" stroke-width=".59"/>
  <path d="M188.06 54.06h1.48v10.94h-1.48Z" fill="#ffd166" stroke="#ffd166" stroke-width=".59"/>
  <path d="M195.18 54.06h2.21l2.79 7.44 2.8-7.44h2.22v10.94h-1.45v-9.61l-2.82 7.5h-1.48l-2.83-7.5v9.61h-1.44Z" fill="#ffd166" stroke="#ffd166" stroke-width=".59"/>
  <path d="M210.82 54.06h6.93v1.25h-5.44v3.24h5.2v1.25h-5.2v3.95h5.56v1.25h-7.05Z" fill="#ffd166" stroke="#ffd166" stroke-width=".59"/>
  <path d="M223 54.06h2l4.85 9.16v-9.16h1.43v10.94h-2l-4.84-9.14v9.14h-1.44Z" fill="#ffd166" stroke="#ffd166" stroke-width=".59"/>
  <g fill="#b7f7d8">
    <use href="#g0" x="52" y="189"/>
    <use href="#g1" x="94.41" y="189"/>
    <use href="#g2" x="133.86" y="189"/>
    <use href="#g3" x="171.61" y="189"/>
    <use href="#g4" x="200.25" y="189"/>
    <use href="#g5" x="241.6" y="189"/>
    <use href="#g6" x="269.76" y="189"/>
  </g>
  <g fill="#b7f7d8">
    <use href="#g7" x="52" y="248.52"/>
    <use href="#g4" x="95.35" y="248.52"/>
    <use href="#g2" x="136.71" y="248.52"/>
    <use href="#g8" x="174.46" y="248.52"/>
    <use href="#g1" x="217.41" y="248.52"/>
    <use href="#g3" x="256.86" y="248.52"/>
    <use href="#g9" x="307.08" y="248.52"/>
    <use href="#g10" x="341.99" y="248.52"/>
    <use href="#g11" x="365.54" y="248.52"/>
    <use href="#g1" x="400.75" y="248.52"/>
    <use href="#g12" x="440.2" y="248.52"/>
  </g>
  <g fill="#e5c8e9">
    <use href="#g13" x="52" y="305"/>
    <use href="#g14" x="73.04" y="305"/>
    <use href="#g15" x="84.59" y="305"/>
    <use href="#g16" x="97.44" y="305"/>
    <use href="#g17" x="117.89" y="305"/>
    <use href="#g18" x="131.22" y="305"/>
    <use href="#g14" x="144.09" y="305"/>
    <use href="#g19" x="155.64" y="305"/>
    <use href="#g20" x="170.55" y="305"/>
    <use href="#g21" x="181.49" y="305"/>
    <use href="#g16" x="194.8" y="305"/>
    <use href="#g16" x="215.25" y="305"/>
    <use href="#g18" x="235.71" y="305"/>
    <use href="#g22" x="248.58" y="305"/>
    <use href="#g23" x="257.21" y="305"/>
    <use href="#g14" x="276.31" y="305"/>
    <use href="#g18" x="287.86" y="305"/>
    <use href="#g22" x="300.73" y="305"/>
    <use href="#g24" x="308.99" y="305"/>
    <use href="#g25" x="329" y="305"/>
    <use href="#g26" x="346.17" y="305"/>
    <use href="#g15" x="359.48" y="305"/>
    <use href="#g20" x="372.33" y="305"/>
    <use href="#g27" x="383.27" y="305"/>
  </g>
  <g fill="#e5c8e9">
    <use href="#g19" x="52" y="333.35"/>
    <use href="#g23" x="60.23" y="333.35"/>
    <use href="#g17" x="72.66" y="333.35"/>
    <use href="#g15" x="85.99" y="333.35"/>
    <use href="#g28" x="98.84" y="333.35"/>
    <use href="#g22" x="112.17" y="333.35"/>
    <use href="#g18" x="120.8" y="333.35"/>
    <use href="#g17" x="133.67" y="333.35"/>
    <use href="#g26" x="147" y="333.35"/>
    <use href="#g23" x="160.31" y="333.35"/>
    <use href="#g18" x="179.42" y="333.35"/>
    <use href="#g29" x="192.28" y="333.35"/>
    <use href="#g24" x="205.59" y="333.35"/>
    <use href="#g20" x="225.6" y="333.35"/>
    <use href="#g26" x="236.54" y="333.35"/>
    <use href="#g18" x="249.85" y="333.35"/>
    <use href="#g17" x="262.72" y="333.35"/>
    <use href="#g27" x="276.05" y="333.35"/>
    <use href="#g20" x="288.97" y="333.35"/>
    <use href="#g22" x="306.58" y="333.35"/>
    <use href="#g27" x="314.76" y="333.35"/>
    <use href="#g16" x="327.68" y="333.35"/>
    <use href="#g18" x="348.13" y="333.35"/>
    <use href="#g30" x="361" y="333.35"/>
    <use href="#g29" x="366.84" y="333.35"/>
    <use href="#g27" x="386.82" y="333.35"/>
    <use href="#g24" x="399.74" y="333.35"/>
    <use href="#g30" x="413.07" y="333.35"/>
    <use href="#g19" x="418.91" y="333.35"/>
    <use href="#g18" x="427.14" y="333.35"/>
    <use href="#g31" x="440.01" y="333.35"/>
    <use href="#g32" x="453.34" y="333.35"/>
    <use href="#g27" x="459.17" y="333.35"/>
  </g>
  <g fill="#e5c8e9">
    <use href="#g33" x="52" y="362.7"/>
    <use href="#g34" x="65.33" y="362.7"/>
    <use href="#g35" x="79.7" y="362.7"/>
    <use href="#g36" x="95.97" y="362.7"/>
  </g>
  <clipPath id="cp0">
    <path d="M64 524c6.63 0 12 5.37 12 12s-5.37 12-12 12-12-5.37-12-12 5.37-12 12-12Z"/>
  </clipPath>
  <g clip-path="url(#cp0)">
    <rect x="52" y="524" width="24" height="24" fill="#ffd166"/>
  </g>
  <path d="M372.63 535.34q-.94 0-1.49.64-.53.65-.53 1.74 0 1.11.53 1.75.55.64 1.48.64t1.47-.64q.55-.64.55-1.75 0-1.09-.55-1.74-.54-.64-1.46-.64Zm2.73-4.32v1.26q-.52-.25-1.05-.37-.53-.14-1.04-.14-1.38 0-2.1.92t-.81 2.79q.39-.59 1-.9.61-.33 1.34-.33 1.53 0 2.42.94.91.93.91 2.53 0 1.58-.94 2.53-.92.95-2.46.95-1.79 0-2.72-1.36t-.93-3.93q0-2.43 1.14-3.86 1.16-1.44 3.08-1.44.53 0 1.05.11.53.09 1.11.3Z" fill="#b7f7d8" stroke="#b7f7d8" stroke-width=".556"/>
  <path d="M382.48 531.7q-1.06 0-1.61 1.05-.53 1.05-.53 3.16 0 2.09.53 3.15.55 1.05 1.61 1.05 1.08 0 1.61-1.05.53-1.06.53-3.15 0-2.11-.53-3.16t-1.61-1.05Zm0-1.09q1.72 0 2.63 1.36t.9 3.94q0 2.57-.9 3.93-.91 1.36-2.63 1.36t-2.62-1.36q-.91-1.36-.91-3.93 0-2.58.91-3.94t2.62-1.36Z" fill="#b7f7d8" stroke="#b7f7d8" stroke-width=".556"/>
  <path d="M392.51 531.7q-1.06 0-1.61 1.05-.53 1.05-.53 3.16 0 2.09.53 3.15.55 1.05 1.61 1.05 1.08 0 1.61-1.05.53-1.06.53-3.15 0-2.11-.53-3.16t-1.61-1.05Zm0-1.09q1.72 0 2.62 1.36t.91 3.94q0 2.57-.91 3.93t-2.62 1.36q-1.72 0-2.63-1.36t-.9-3.93q0-2.58.9-3.94t2.63-1.36Z" fill="#b7f7d8" stroke="#b7f7d8" stroke-width=".556"/>
  <path d="M413.46 533.48l-3.12 3.15 3.12 3.1-.81.83-3.14-3.12-3.12 3.12-.82-.83 3.11-3.1-3.11-3.15.82-.82 3.12 3.14 3.14-3.14Z" fill="#b7f7d8" stroke="#b7f7d8" stroke-width=".556"/>
  <path d="M426.7 535.34q-.94 0-1.49.64-.53.65-.53 1.74 0 1.11.53 1.75.55.64 1.49.64.92 0 1.47-.64t.54-1.75q0-1.09-.54-1.74-.55-.64-1.47-.64Zm2.73-4.32v1.26q-.51-.25-1.04-.37-.54-.14-1.05-.14-1.38 0-2.1.92t-.81 2.79q.39-.59 1-.9.61-.33 1.35-.33 1.53 0 2.42.94.9.93.9 2.53 0 1.58-.93 2.53t-2.47.95q-1.78 0-2.72-1.36-.92-1.36-.92-3.93 0-2.43 1.14-3.86 1.15-1.44 3.08-1.44.53 0 1.04.11.53.09 1.11.3Z" fill="#b7f7d8" stroke="#b7f7d8" stroke-width=".556"/>
  <path d="M436.55 531.7q-1.06 0-1.61 1.05-.53 1.05-.53 3.16 0 2.09.53 3.15.55 1.05 1.61 1.05 1.08 0 1.61-1.05.53-1.06.53-3.15 0-2.11-.53-3.16t-1.61-1.05Zm0-1.09q1.72 0 2.63 1.36t.9 3.94q0 2.57-.9 3.93t-2.63 1.36q-1.72 0-2.62-1.36t-.91-3.93q0-2.58.91-3.94t2.62-1.36Z" fill="#b7f7d8" stroke="#b7f7d8" stroke-width=".556"/>
  <path d="M446.58 531.7q-1.06 0-1.61 1.05-.53 1.05-.53 3.16 0 2.09.53 3.15.55 1.05 1.61 1.05 1.08 0 1.61-1.05.53-1.06.53-3.15 0-2.11-.53-3.16t-1.61-1.05Zm0-1.09q1.72 0 2.63 1.36t.9 3.94q0 2.57-.9 3.93-.91 1.36-2.63 1.36t-2.62-1.36q-.91-1.36-.91-3.93 0-2.58.91-3.94t2.62-1.36Z" fill="#b7f7d8" stroke="#b7f7d8" stroke-width=".556"/>
  <path d="M461.29 530.8h1.15l-3.56 11.5h-1.16Z" fill="#b7f7d8" stroke="#b7f7d8" stroke-width=".556"/>
  <path d="M476.63 531.13v1.34q-.8-.38-1.5-.55-.69-.19-1.34-.19-1.13 0-1.74.44t-.61 1.24q0 .68.41 1.03t1.55.54l.83.18q1.54.29 2.28 1.04.73.74.73 1.99 0 1.48-1 2.25-.98.76-2.91.76-.73 0-1.54-.17-.81-.16-1.69-.48v-1.42q.84.46 1.64.71.81.24 1.59.24 1.18 0 1.82-.47.65-.47.65-1.33 0-.75-.47-1.17-.45-.42-1.51-.64l-.84-.16q-1.55-.31-2.24-.97t-.69-1.82q0-1.35.96-2.13.95-.78 2.62-.78.72 0 1.47.14.75.13 1.53.38Z" fill="#b7f7d8" stroke="#b7f7d8" stroke-width=".556"/>
  <path d="M480.36 530.8h1.39v6.2q0 1.64.59 2.36t1.92.72 1.92-.72.6-2.36v-6.2h1.39v6.37q0 1.99-.99 3.02-.98 1.01-2.92 1.01t-2.92-1.01q-.98-1.03-.98-3.02Z" fill="#b7f7d8" stroke="#b7f7d8" stroke-width=".556"/>
  <path d="M491.88 530.8h2.06l2.6 6.93 2.62-6.93h2.06v10.2h-1.36v-8.97l-2.62 7h-1.39l-2.63-7v8.97h-1.34Z" fill="#b7f7d8" stroke="#b7f7d8" stroke-width=".556"/>
  <path d="M505.08 530.8h2.06l2.6 6.93 2.62-6.93h2.06v10.2h-1.36v-8.97l-2.62 7h-1.39l-2.63-7v8.97h-1.34Z" fill="#b7f7d8" stroke="#b7f7d8" stroke-width=".556"/>
  <path d="M521.68 532.16l-1.87 5.07h3.77Zm-.78-1.36h1.58l3.89 10.2h-1.44l-.93-2.63-4.6.01-.93 2.62h-1.46Z" fill="#b7f7d8" stroke="#b7f7d8" stroke-width=".556"/>
  <path d="M533.82 536.22q.44.14.86.64.42.48.84 1.34l1.41 2.8h-1.49l-1.31-2.63q-.5-1.01-.98-1.34-.47-.34-1.28-.34h-1.52v4.31h-1.37v-10.2h3.1q1.75 0 2.61.73.88.72.88 2.2 0 .97-.45 1.61-.46.63-1.3.88Zm-3.47-4.3v3.63h1.73q1 0 1.52-.46t.52-1.36q0-.89-.52-1.34-.52-.47-1.52-.47Z" fill="#b7f7d8" stroke="#b7f7d8" stroke-width=".556"/>
  <path d="M537.52 530.8h1.49l2.82 4.18 2.82-4.18h1.48l-3.61 5.34v4.86h-1.39v-4.86Z" fill="#b7f7d8" stroke="#b7f7d8" stroke-width=".556"/>
  <defs>
    <path id="g0" d="M48.98-45.2v3.67h-3.78l-17.04 41.53h-7.21l-17.04-41.53h-4.27v-3.67h21.19v3.67h-4.39l12.2 29.94 12.3-29.94h-5.39v-3.67Z"/>
    <path id="g1" d="M24.86-18.17q0-6.35-1.19-8.91-1.17-2.56-4.03-2.56-2.75 0-3.95 2.51-1.19 2.52-1.19 8.43v.53Zm11.77 3.61h-22.13v.25q0 6.23 1.88 9t6.06 2.76q3.48 0 5.62-1.84 2.16-1.84 2.75-5.36h5.03q-1.29 5.48-5.17 8.06-3.87 2.57-10.84 2.57-8.36 0-12.83-4.41-4.45-4.41-4.45-12.58 0-7.98 4.56-12.47 4.58-4.48 12.72-4.48 8 0 12.26 4.72 4.27 4.7 4.54 13.78Z"/>
    <path id="g2" d="M34.97-10.05q-1.16 5.5-4.72 8.22-3.55 2.71-9.66 2.71-8.61 0-13.32-4.44-4.72-4.46-4.72-12.55 0-7.98 4.65-12.47 4.68-4.48 12.96-4.48 3.36 0 6.78.64t6.97 1.9v8.94h-3.39q-.49-4.09-2.4-6.08t-5.35-1.98q-4.49 0-6.38 3.03t-1.89 10.5q0 7.3 1.84 10.44 1.85 3.12 6.04 3.12 3.23 0 5.18-1.93 1.96-1.94 2.38-5.57Z"/>
    <path id="g3" d="M6.14-28.52h-4.66v-3.67h4.66v-9.98h10.72v9.98h8.94v3.67h-8.94v19.71q0 4.2.66 5.23t2.43 1.03q1.94 0 2.88-1.29.94-1.3 1-4.04l4.51.01q-.28 4.84-2.65 6.79t-8.19 1.96q-6.63 0-9-2.07-2.36-2.08-2.36-7.62Z"/>
    <path id="g4" d="M20.7-2.55q3.39 0 4.77-2.9t1.39-10.66q0-7.75-1.38-10.64-1.35-2.89-4.78-2.89-3.42 0-4.81 2.92t-1.39 10.61 1.39 10.63 4.81 2.93Zm0 3.43q-8.5 0-13.33-4.52-4.82-4.53-4.82-12.47 0-7.95 4.82-12.45 4.83-4.5 13.33-4.5 8.55 0 13.36 4.5t4.81 12.45q.01 7.94-4.82 12.47-4.83 4.52-13.35 4.52Z"/>
    <path id="g5" d="M33.3-32.55v9.6h-3.42q-.18-2.57-1.4-3.82-1.2-1.26-3.51-1.26-3.5 0-5.53 3.09t-2.03 8.57v12.71h5.84v3.66h-21.13l.01-3.66h4.56v-24.86h-4.91v-3.67h15.63v5.74q1.57-3.36 4.15-4.99 2.6-1.62 6.35-1.62.93 0 2.28.14t3.11.37Z"/>
    <path id="g6" d="M.81 5.97q3.16-2.55 4.64-5.7t1.49-7.32v-2.61h8.62v.24q0 6.7-2.81 11.53-2.8 4.83-8.61 8.12Z"/>
    <path id="g7" d="M16.73-17.69v3.19q0 5.63 1.44 8.14 1.46 2.52 4.66 2.52 3.3 0 4.64-2.66 1.36-2.67 1.36-9.61 0-6.92-1.36-9.58-1.34-2.65-4.64-2.65-3.21 0-4.66 2.51-1.44 2.52-1.44 8.14Zm-10.7-10.83h-4.61v-3.67h15.31v4.1q1.38-2.52 3.68-3.74 2.29-1.23 5.68-1.23 6.88 0 10.83 4.53t3.96 12.42q-.01 7.91-3.96 12.45t-10.83 4.54q-3.39 0-5.68-1.22-2.3-1.24-3.68-3.75v13.32h4.97v3.66h-20.28v-3.66h4.61Z"/>
    <path id="g8" d="M21.47 0h-19.34l-.01-3.66h4.57v-39.81h-4.57l.01-3.64h15.28v30.25l12.98-11.66h-3.84v-3.67h14.68v3.67h-5.96l-8.3 7.44 13.56 17.42h3.49v3.66h-18.47v-3.66h3.78l-8.92-11.48-3 2.67v8.81h4.06Z"/>
    <path id="g9" d="M2.91-.94v-9h3.42q.42 3.61 2.69 5.5t6.18 1.89q3.27 0 5-1.12 1.75-1.14 1.75-3.27 0-1.94-1.11-2.98-1.11-1.06-4.28-1.86l-4.42-1.11q-5-1.25-7.23-3.56t-2.24-6.25q0-5.24 3.63-7.8t11.2-2.56q2.84 0 6.06.47 3.24.47 7.14 1.47v8.1h-3.42q-.28-3.29-2.36-4.95-2.06-1.67-5.94-1.67-3.26 0-4.95 1.05-1.67 1.04-1.67 3.04 0 1.63.97 2.57t3.47 1.57l4.39 1.13q6.33 1.61 8.75 3.97t2.42 6.56q0 5.45-3.89 8.05-3.89 2.58-12.09 2.58-3 0-6.36-.46t-7.11-1.36Z"/>
    <path id="g10" d="M5.69-41.3q0-2.45 1.69-4.12 1.7-1.69 4.15-1.69 2.39 0 4.06 1.69 1.69 1.67 1.69 4.12 0 2.39-1.69 4.08-1.67 1.67-4.06 1.67-2.45 0-4.15-1.65-1.69-1.67-1.69-4.1Zm11.72 37.64h4.61v3.66h-19.9l.01-3.66h4.56v-24.86h-4.57l.01-3.67h15.28Z"/>
    <path id="g11" d="M2.19 0v-3.66l18.45-24.98h-13.89v5.51h-3.59v-9.06h29.97l-.01 3.61-18.49 24.97h14.89v-5.81h3.6l.01 9.42Z"/>
    <path id="g12" d="M26.61-14.5v-3.19q0-5.62-1.45-8.14t-4.63-2.51q-3.33 0-4.69 2.65-1.34 2.66-1.34 9.58 0 6.94 1.36 9.61 1.36 2.66 4.67 2.66 3.17 0 4.63-2.52 1.45-2.51 1.45-8.14Zm10.72 10.84h4.58v3.66h-15.3v-4.09q-1.36 2.51-3.69 3.75-2.31 1.22-5.7 1.22-6.83 0-10.75-4.54t-3.92-12.45q0-7.92 3.92-12.44t10.75-4.51q3.39 0 5.7 1.23 2.33 1.22 3.69 3.74v-15.38h-4.59v-3.64h15.31Z"/>
    <path id="g13" d="M7.17-13.27l-2.8 7.61h5.63Zm-1.15-2.04h2.34l5.83 15.31h-2.16l-1.39-3.92h-6.89l-1.41 3.92h-2.17Z"/>
    <path id="g14" d="M10.25-11.05v1.77q-.81-.44-1.63-.66-.79-.22-1.6-.22-1.85 0-2.86 1.18-1.02 1.15-1.02 3.25t1.02 3.28q1.01 1.15 2.86 1.15.81 0 1.61-.22t1.62-.67v1.75q-.8.36-1.64.55t-1.8.19q-2.59 0-4.12-1.63t-1.53-4.4q0-2.82 1.54-4.43t4.24-1.61q.86 0 1.69.19.84.17 1.62.53Z"/>
    <path id="g15" d="M6.42-10.16q-1.51 0-2.4 1.19-.88 1.17-.88 3.24 0 2.06.88 3.25t2.4 1.18q1.52 0 2.39-1.18.89-1.21.89-3.25t-.89-3.22q-.87-1.21-2.39-1.21Zm0-1.61q2.47 0 3.88 1.61 1.4 1.6 1.4 4.43t-1.4 4.43-3.88 1.6q-2.47 0-3.87-1.6t-1.39-4.43q0-2.83 1.39-4.43 1.4-1.61 3.87-1.61Z"/>
    <path id="g16" d="M10.92-9.28q.7-1.27 1.69-1.88t2.33-.61q1.78 0 2.75 1.27.98 1.25.98 3.56v6.94h-1.89v-6.88q0-1.64-.59-2.43-.58-.81-1.78-.81-1.47-.01-2.33.98-.85.97-.85 2.66v6.48h-1.89v-6.88q0-1.65-.59-2.45-.58-.8-1.8-.8-1.45.01-2.31.99-.84.98-.84 2.66v6.48h-1.89v-11.48h1.89v1.78q.65-1.05 1.54-1.55.91-.52 2.16-.52t2.13.65q.87.64 1.29 1.84Z"/>
    <path id="g17" d="M3.8-1.72v6.1l-1.89-.01v-15.85h1.89v1.75q.61-1.04 1.51-1.54t2.16-.5q2.09 0 3.41 1.68 1.31 1.65 1.31 4.36 0 2.7-1.31 4.37-1.32 1.66-3.41 1.66-1.25 0-2.16-.5t-1.51-1.52Zm6.42-4.01q0-2.08-.86-3.27-.84-1.19-2.34-1.19t-2.36 1.19-.86 3.27.86 3.26 2.36 1.19q1.5 0 2.34-1.19.86-1.19.86-3.26Z"/>
    <path id="g18" d="M7.2-5.77q-2.29 0-3.18.52-.88.52-.88 1.78 0 1 .66 1.6.67.59 1.81.59 1.56 0 2.51-1.11t.96-2.97v-.41Zm3.77-.78v6.55h-1.89v-1.75q-.66 1.05-1.63 1.55-.95.5-2.34.5-1.77 0-2.81-.99t-1.03-2.65q0-1.94 1.29-2.93 1.3-.98 3.86-.98h2.66v-.19q0-1.29-.86-2t-2.41-.72q-.98 0-1.92.24-.92.23-1.78.7v-1.75q1.03-.39 2-.59.98-.21 1.91-.21 2.48 0 3.71 1.3t1.24 3.92Z"/>
    <path id="g19" d="M3.84-14.75v3.27h3.89v1.46h-3.89v6.24q0 1.41.38 1.81t1.58.39h1.93v1.58h-1.93q-2.19 0-3.02-.81t-.83-2.97v-6.24h-1.39v-1.46h1.39v-3.27Z"/>
    <path id="g20" d="M9.3-11.14v1.78q-.8-.41-1.66-.61-.86-.22-1.78-.22-1.41 0-2.11.44-.7.42-.7 1.3 0 .65.5 1.03.5.36 2.01.7l.66.14q2 .44 2.84 1.22.86.78.86 2.19 0 1.61-1.26 2.55-1.27.92-3.49.92-.92 0-1.92-.19-1-.17-2.11-.53v-1.96q1.05.55 2.06.83 1.02.27 2 .27 1.35 0 2.07-.45t.71-1.3q0-.77-.53-1.17-.51-.41-2.26-.8l-.66-.14q-1.75-.38-2.53-1.14t-.78-2.09q0-1.63 1.14-2.51 1.16-.89 3.27-.89 1.04 0 1.96.16t1.71.47Z"/>
    <path id="g21" d="M1.78-4.53v-6.95h1.89v6.87q0 1.64.63 2.45t1.92.82q1.51 0 2.41-.97.89-.99.89-2.66v-6.51h1.89v11.48h-1.89v-1.77q-.69 1.05-1.6 1.57-.9.5-2.11.5-1.98 0-3.01-1.22-1.02-1.24-1.02-3.61Zm4.75-7.24Z"/>
    <path id="g22" d="M8.64-9.72q-.33-.19-.7-.26-.38-.1-.83-.1-1.59 0-2.45 1.05-.86 1.03-.86 2.98v6.05h-1.89v-11.48h1.89v1.78q.61-1.05 1.56-1.55.95-.52 2.31-.52.19 0 .42.04.25.03.53.07Z"/>
    <path id="g23" d="M6.75 1.06q-.8 2.07-1.56 2.69t-2.02.63l-1.51-.01v-1.57h1.11q.78 0 1.2-.38.44-.37.97-1.75l.33-.86-4.65-11.29h2.01l3.59 8.98 3.58-8.98h2Z"/>
    <path id="g24" d="M9.53-9.73v-6.22h1.89v15.95h-1.89v-1.72q-.59 1.02-1.5 1.52t-2.17.5q-2.08 0-3.39-1.66-1.31-1.67-1.31-4.37t1.31-4.36q1.31-1.68 3.39-1.68 1.26 0 2.17.5t1.5 1.54Zm-6.42 4q0 2.07.84 3.26.86 1.19 2.36 1.19t2.36-1.19.86-3.26q0-2.08-.86-3.27t-2.36-1.19-2.36 1.19q-.84 1.19-.84 3.27Z"/>
    <path id="g25" d="M.88-11.48h1.89l2.36 8.96 2.34-8.96h2.23l2.36 8.96 2.35-8.96h1.89l-3 11.48h-2.24l-2.47-9.41-2.48 9.41h-2.22Z"/>
    <path id="g26" d="M11.53-6.94v6.94h-1.89v-6.88q0-1.62-.64-2.43-.63-.81-1.91-.81-1.53-.01-2.42.98-.87.97-.87 2.66v6.48h-1.89v-15.95h1.89v6.25q.68-1.03 1.59-1.55.92-.52 2.13-.52 1.98 0 3 1.24 1.01 1.22 1.01 3.59Z"/>
    <path id="g27" d="M11.8-6.22v.92h-8.68q.13 1.96 1.18 2.99 1.06 1.01 2.93 1.01 1.08 0 2.1-.26t2.03-.82v1.8q-1.02.42-2.08.64-1.06.24-2.17.24-2.74 0-4.34-1.6-1.61-1.61-1.61-4.32 0-2.83 1.51-4.49 1.53-1.66 4.11-1.66 2.33 0 3.67 1.5 1.35 1.49 1.35 4.05Zm-1.88-.55q-.03-1.54-.87-2.46t-2.24-.93q-1.58 0-2.53.89t-1.09 2.52Z"/>
    <path id="g28" d="M9.53-5.88q0-2.04-.84-3.17t-2.38-1.14q-1.51 0-2.36 1.14-.84 1.13-.84 3.18t.84 3.17 2.36 1.12q1.53 0 2.38-1.12t.84-3.18Zm1.89 4.46q0 2.92-1.31 4.36-1.3 1.44-3.98 1.44-.99-.01-1.88-.16-.88-.14-1.7-.45v-1.85q.83.46 1.64.67.81.22 1.64.22 1.86 0 2.78-.97t.92-2.93v-.93q-.58 1.02-1.5 1.52-.9.5-2.17.5-2.11 0-3.41-1.61t-1.29-4.27q0-2.67 1.29-4.28t3.41-1.61q1.26 0 2.17.52.92.5 1.5 1.52v-1.75h1.89Z"/>
    <path id="g29" d="M11.53-6.94v6.94h-1.89v-6.88q0-1.62-.64-2.43-.63-.81-1.91-.81-1.53-.01-2.42.98-.87.97-.87 2.66v6.48h-1.89v-11.48h1.89v1.78q.68-1.03 1.59-1.55.92-.52 2.13-.52 1.98 0 3 1.24 1.01 1.22 1.01 3.59Z"/>
    <path id="g30" d="M1.98-11.48h1.88v11.48h-1.88Zm0-4.47h1.88v2.39h-1.88Z"/>
    <path id="g31" d="M10.22-5.73q0-2.08-.86-3.27-.84-1.19-2.34-1.19t-2.36 1.19-.86 3.27.86 3.26 2.36 1.19q1.5 0 2.34-1.19.86-1.19.86-3.26Zm-6.42-4q.61-1.04 1.51-1.54t2.16-.5q2.09 0 3.41 1.68 1.31 1.65 1.31 4.36 0 2.7-1.31 4.37-1.32 1.66-3.41 1.66-1.25 0-2.16-.5t-1.51-1.52v1.72h-1.89v-15.95h1.89Z"/>
    <path id="g32" d="M1.98-15.95h1.88v15.95h-1.88Z"/>
    <path id="g33" d="M11.23-14.81v2.03q-1.17-.56-2.21-.85-1.05-.28-2.02-.28-1.7 0-2.63.66-.9.66-.9 1.88 0 1.01.61 1.53t2.31.82l1.25.27q2.31.44 3.41 1.55t1.11 2.98q0 2.22-1.5 3.38-1.49 1.14-4.36 1.14-1.1 0-2.32-.25-1.21-.24-2.53-.72v-2.14q1.25.7 2.46 1.06t2.39.36q1.76 0 2.73-.69.97-.7.97-2 0-1.12-.7-1.75t-2.27-.95l-1.26-.25q-2.32-.47-3.35-1.45t-1.03-2.74q0-2.03 1.42-3.2 1.44-1.17 3.94-1.17 1.08 0 2.19.2 1.12.19 2.29.58Z"/>
    <path id="g34" d="M6.02 0l-5.85-15.31h2.16l4.84 12.89 4.86-12.89h2.16l-5.83 15.31Z"/>
    <path id="g35" d="M12.5-2.19v-4.11h-3.39v-1.7h5.44v6.58q-1.21.84-2.66 1.28-1.44.44-3.08.44-3.58 0-5.61-2.1t-2.03-5.84q0-3.75 2.03-5.84 2.03-2.11 5.61-2.11 1.5 0 2.85.37t2.5 1.1v2.2q-1.16-.99-2.46-1.47-1.28-.5-2.7-.5-2.81 0-4.23 1.58-1.41 1.56-1.41 4.67 0 3.09 1.41 4.67 1.42 1.56 4.23 1.56 1.09 0 1.95-.18.86-.19 1.55-.6Z"/>
    <path id="g36" d="M2.25-2.61h2.16v2.61h-2.16Z"/>
  </defs>
</svg>